<svg xmlns="http://www.w3.org/2000/svg" version="1.1" xmlns:xlink="http://www.w3.org/1999/xlink" xmlns:svgjs="http://svgjs.dev/svgjs" viewBox="0 0 800 800" opacity="1"><g stroke-width="0.8" stroke="hsl(30, 100%, 40%)" fill="none" stroke-linecap="round" transform="matrix(1,0,0,1,-5,101.46764755249023)"><path d="M10,10C31.726190476190478,16.458333333333336,68.75,49.125,114.28571428571429,41C159.82142857142858,32.875,180.95238095238096,-26.291666666666668,228.57142857142858,-29C276.1904761904762,-31.708333333333332,295.2380952380953,24.875,342.8571428571429,28C390.4761904761905,31.125,409.5238095238095,-17.75,457.14285714285717,-14C504.7619047619048,-10.25,523.8095238095239,42.875,571.4285714285714,46C619.047619047619,49.125,638.0952380952382,5.166666666666667,685.7142857142858,1C733.3333333333334,-3.166666666666667,776.1904761904761,20.791666666666664,800,26"></path><path d="M10,10C31.726190476190478,16.458333333333336,68.75,49.125,114.28571428571429,41C159.82142857142858,32.875,180.95238095238096,-26.291666666666668,228.57142857142858,-29C276.1904761904762,-31.708333333333332,295.2380952380953,24.875,342.8571428571429,28C390.4761904761905,31.125,409.5238095238095,-17.75,457.14285714285717,-14C504.7619047619048,-10.25,523.8095238095239,42.875,571.4285714285714,46C619.047619047619,49.125,638.0952380952382,5.166666666666667,685.7142857142858,1C733.3333333333334,-3.166666666666667,776.1904761904761,20.791666666666664,800,26" transform="matrix(1,0,0,1,0,580)"></path><path d="M10,10C31.726190476190478,16.458333333333336,68.75,49.125,114.28571428571429,41C159.82142857142858,32.875,180.95238095238096,-26.291666666666668,228.57142857142858,-29C276.1904761904762,-31.708333333333332,295.2380952380953,24.875,342.8571428571429,28C390.4761904761905,31.125,409.5238095238095,-17.75,457.14285714285717,-14C504.7619047619048,-10.25,523.8095238095239,42.875,571.4285714285714,46C619.047619047619,49.125,638.0952380952382,5.166666666666667,685.7142857142858,1C733.3333333333334,-3.166666666666667,776.1904761904761,20.791666666666664,800,26" transform="matrix(1,0,0,1,0,551)"></path><path d="M10,10C31.726190476190478,16.458333333333336,68.75,49.125,114.28571428571429,41C159.82142857142858,32.875,180.95238095238096,-26.291666666666668,228.57142857142858,-29C276.1904761904762,-31.708333333333332,295.2380952380953,24.875,342.8571428571429,28C390.4761904761905,31.125,409.5238095238095,-17.75,457.14285714285717,-14C504.7619047619048,-10.25,523.8095238095239,42.875,571.4285714285714,46C619.047619047619,49.125,638.0952380952382,5.166666666666667,685.7142857142858,1C733.3333333333334,-3.166666666666667,776.1904761904761,20.791666666666664,800,26" transform="matrix(1,0,0,1,0,522)"></path><path d="M10,10C31.726190476190478,16.458333333333336,68.75,49.125,114.28571428571429,41C159.82142857142858,32.875,180.95238095238096,-26.291666666666668,228.57142857142858,-29C276.1904761904762,-31.708333333333332,295.2380952380953,24.875,342.8571428571429,28C390.4761904761905,31.125,409.5238095238095,-17.75,457.14285714285717,-14C504.7619047619048,-10.25,523.8095238095239,42.875,571.4285714285714,46C619.047619047619,49.125,638.0952380952382,5.166666666666667,685.7142857142858,1C733.3333333333334,-3.166666666666667,776.1904761904761,20.791666666666664,800,26" transform="matrix(1,0,0,1,0,493)"></path><path d="M10,10C31.726190476190478,16.458333333333336,68.75,49.125,114.28571428571429,41C159.82142857142858,32.875,180.95238095238096,-26.291666666666668,228.57142857142858,-29C276.1904761904762,-31.708333333333332,295.2380952380953,24.875,342.8571428571429,28C390.4761904761905,31.125,409.5238095238095,-17.75,457.14285714285717,-14C504.7619047619048,-10.25,523.8095238095239,42.875,571.4285714285714,46C619.047619047619,49.125,638.0952380952382,5.166666666666667,685.7142857142858,1C733.3333333333334,-3.166666666666667,776.1904761904761,20.791666666666664,800,26" transform="matrix(1,0,0,1,0,464)"></path><path d="M10,10C31.726190476190478,16.458333333333336,68.75,49.125,114.28571428571429,41C159.82142857142858,32.875,180.95238095238096,-26.291666666666668,228.57142857142858,-29C276.1904761904762,-31.708333333333332,295.2380952380953,24.875,342.8571428571429,28C390.4761904761905,31.125,409.5238095238095,-17.75,457.14285714285717,-14C504.7619047619048,-10.25,523.8095238095239,42.875,571.4285714285714,46C619.047619047619,49.125,638.0952380952382,5.166666666666667,685.7142857142858,1C733.3333333333334,-3.166666666666667,776.1904761904761,20.791666666666664,800,26" transform="matrix(1,0,0,1,0,435)"></path><path d="M10,10C31.726190476190478,16.458333333333336,68.75,49.125,114.28571428571429,41C159.82142857142858,32.875,180.95238095238096,-26.291666666666668,228.57142857142858,-29C276.1904761904762,-31.708333333333332,295.2380952380953,24.875,342.8571428571429,28C390.4761904761905,31.125,409.5238095238095,-17.75,457.14285714285717,-14C504.7619047619048,-10.25,523.8095238095239,42.875,571.4285714285714,46C619.047619047619,49.125,638.0952380952382,5.166666666666667,685.7142857142858,1C733.3333333333334,-3.166666666666667,776.1904761904761,20.791666666666664,800,26" transform="matrix(1,0,0,1,0,406)"></path><path d="M10,10C31.726190476190478,16.458333333333336,68.75,49.125,114.28571428571429,41C159.82142857142858,32.875,180.95238095238096,-26.291666666666668,228.57142857142858,-29C276.1904761904762,-31.708333333333332,295.2380952380953,24.875,342.8571428571429,28C390.4761904761905,31.125,409.5238095238095,-17.75,457.14285714285717,-14C504.7619047619048,-10.25,523.8095238095239,42.875,571.4285714285714,46C619.047619047619,49.125,638.0952380952382,5.166666666666667,685.7142857142858,1C733.3333333333334,-3.166666666666667,776.1904761904761,20.791666666666664,800,26" transform="matrix(1,0,0,1,0,377)"></path><path d="M10,10C31.726190476190478,16.458333333333336,68.75,49.125,114.28571428571429,41C159.82142857142858,32.875,180.95238095238096,-26.291666666666668,228.57142857142858,-29C276.1904761904762,-31.708333333333332,295.2380952380953,24.875,342.8571428571429,28C390.4761904761905,31.125,409.5238095238095,-17.75,457.14285714285717,-14C504.7619047619048,-10.25,523.8095238095239,42.875,571.4285714285714,46C619.047619047619,49.125,638.0952380952382,5.166666666666667,685.7142857142858,1C733.3333333333334,-3.166666666666667,776.1904761904761,20.791666666666664,800,26" transform="matrix(1,0,0,1,0,348)"></path><path d="M10,10C31.726190476190478,16.458333333333336,68.75,49.125,114.28571428571429,41C159.82142857142858,32.875,180.95238095238096,-26.291666666666668,228.57142857142858,-29C276.1904761904762,-31.708333333333332,295.2380952380953,24.875,342.8571428571429,28C390.4761904761905,31.125,409.5238095238095,-17.75,457.14285714285717,-14C504.7619047619048,-10.25,523.8095238095239,42.875,571.4285714285714,46C619.047619047619,49.125,638.0952380952382,5.166666666666667,685.7142857142858,1C733.3333333333334,-3.166666666666667,776.1904761904761,20.791666666666664,800,26" transform="matrix(1,0,0,1,0,319)"></path><path d="M10,10C31.726190476190478,16.458333333333336,68.75,49.125,114.28571428571429,41C159.82142857142858,32.875,180.95238095238096,-26.291666666666668,228.57142857142858,-29C276.1904761904762,-31.708333333333332,295.2380952380953,24.875,342.8571428571429,28C390.4761904761905,31.125,409.5238095238095,-17.75,457.14285714285717,-14C504.7619047619048,-10.25,523.8095238095239,42.875,571.4285714285714,46C619.047619047619,49.125,638.0952380952382,5.166666666666667,685.7142857142858,1C733.3333333333334,-3.166666666666667,776.1904761904761,20.791666666666664,800,26" transform="matrix(1,0,0,1,0,290)"></path><path d="M10,10C31.726190476190478,16.458333333333336,68.75,49.125,114.28571428571429,41C159.82142857142858,32.875,180.95238095238096,-26.291666666666668,228.57142857142858,-29C276.1904761904762,-31.708333333333332,295.2380952380953,24.875,342.8571428571429,28C390.4761904761905,31.125,409.5238095238095,-17.75,457.14285714285717,-14C504.7619047619048,-10.25,523.8095238095239,42.875,571.4285714285714,46C619.047619047619,49.125,638.0952380952382,5.166666666666667,685.7142857142858,1C733.3333333333334,-3.166666666666667,776.1904761904761,20.791666666666664,800,26" transform="matrix(1,0,0,1,0,261)"></path><path d="M10,10C31.726190476190478,16.458333333333336,68.75,49.125,114.28571428571429,41C159.82142857142858,32.875,180.95238095238096,-26.291666666666668,228.57142857142858,-29C276.1904761904762,-31.708333333333332,295.2380952380953,24.875,342.8571428571429,28C390.4761904761905,31.125,409.5238095238095,-17.75,457.14285714285717,-14C504.7619047619048,-10.25,523.8095238095239,42.875,571.4285714285714,46C619.047619047619,49.125,638.0952380952382,5.166666666666667,685.7142857142858,1C733.3333333333334,-3.166666666666667,776.1904761904761,20.791666666666664,800,26" transform="matrix(1,0,0,1,0,232)"></path><path d="M10,10C31.726190476190478,16.458333333333336,68.75,49.125,114.28571428571429,41C159.82142857142858,32.875,180.95238095238096,-26.291666666666668,228.57142857142858,-29C276.1904761904762,-31.708333333333332,295.2380952380953,24.875,342.8571428571429,28C390.4761904761905,31.125,409.5238095238095,-17.75,457.14285714285717,-14C504.7619047619048,-10.25,523.8095238095239,42.875,571.4285714285714,46C619.047619047619,49.125,638.0952380952382,5.166666666666667,685.7142857142858,1C733.3333333333334,-3.166666666666667,776.1904761904761,20.791666666666664,800,26" transform="matrix(1,0,0,1,0,203)"></path><path d="M10,10C31.726190476190478,16.458333333333336,68.75,49.125,114.28571428571429,41C159.82142857142858,32.875,180.95238095238096,-26.291666666666668,228.57142857142858,-29C276.1904761904762,-31.708333333333332,295.2380952380953,24.875,342.8571428571429,28C390.4761904761905,31.125,409.5238095238095,-17.75,457.14285714285717,-14C504.7619047619048,-10.25,523.8095238095239,42.875,571.4285714285714,46C619.047619047619,49.125,638.0952380952382,5.166666666666667,685.7142857142858,1C733.3333333333334,-3.166666666666667,776.1904761904761,20.791666666666664,800,26" transform="matrix(1,0,0,1,0,174)"></path><path d="M10,10C31.726190476190478,16.458333333333336,68.75,49.125,114.28571428571429,41C159.82142857142858,32.875,180.95238095238096,-26.291666666666668,228.57142857142858,-29C276.1904761904762,-31.708333333333332,295.2380952380953,24.875,342.8571428571429,28C390.4761904761905,31.125,409.5238095238095,-17.75,457.14285714285717,-14C504.7619047619048,-10.25,523.8095238095239,42.875,571.4285714285714,46C619.047619047619,49.125,638.0952380952382,5.166666666666667,685.7142857142858,1C733.3333333333334,-3.166666666666667,776.1904761904761,20.791666666666664,800,26" transform="matrix(1,0,0,1,0,145)"></path><path d="M10,10C31.726190476190478,16.458333333333336,68.75,49.125,114.28571428571429,41C159.82142857142858,32.875,180.95238095238096,-26.291666666666668,228.57142857142858,-29C276.1904761904762,-31.708333333333332,295.2380952380953,24.875,342.8571428571429,28C390.4761904761905,31.125,409.5238095238095,-17.75,457.14285714285717,-14C504.7619047619048,-10.25,523.8095238095239,42.875,571.4285714285714,46C619.047619047619,49.125,638.0952380952382,5.166666666666667,685.7142857142858,1C733.3333333333334,-3.166666666666667,776.1904761904761,20.791666666666664,800,26" transform="matrix(1,0,0,1,0,116)"></path><path d="M10,10C31.726190476190478,16.458333333333336,68.75,49.125,114.28571428571429,41C159.82142857142858,32.875,180.95238095238096,-26.291666666666668,228.57142857142858,-29C276.1904761904762,-31.708333333333332,295.2380952380953,24.875,342.8571428571429,28C390.4761904761905,31.125,409.5238095238095,-17.75,457.14285714285717,-14C504.7619047619048,-10.25,523.8095238095239,42.875,571.4285714285714,46C619.047619047619,49.125,638.0952380952382,5.166666666666667,685.7142857142858,1C733.3333333333334,-3.166666666666667,776.1904761904761,20.791666666666664,800,26" transform="matrix(1,0,0,1,0,87)"></path><path d="M10,10C31.726190476190478,16.458333333333336,68.75,49.125,114.28571428571429,41C159.82142857142858,32.875,180.95238095238096,-26.291666666666668,228.57142857142858,-29C276.1904761904762,-31.708333333333332,295.2380952380953,24.875,342.8571428571429,28C390.4761904761905,31.125,409.5238095238095,-17.75,457.14285714285717,-14C504.7619047619048,-10.25,523.8095238095239,42.875,571.4285714285714,46C619.047619047619,49.125,638.0952380952382,5.166666666666667,685.7142857142858,1C733.3333333333334,-3.166666666666667,776.1904761904761,20.791666666666664,800,26" transform="matrix(1,0,0,1,0,58)"></path><path d="M10,10C31.726190476190478,16.458333333333336,68.75,49.125,114.28571428571429,41C159.82142857142858,32.875,180.95238095238096,-26.291666666666668,228.57142857142858,-29C276.1904761904762,-31.708333333333332,295.2380952380953,24.875,342.8571428571429,28C390.4761904761905,31.125,409.5238095238095,-17.75,457.14285714285717,-14C504.7619047619048,-10.25,523.8095238095239,42.875,571.4285714285714,46C619.047619047619,49.125,638.0952380952382,5.166666666666667,685.7142857142858,1C733.3333333333334,-3.166666666666667,776.1904761904761,20.791666666666664,800,26" transform="matrix(1,0,0,1,0,29)"></path></g></svg>